<svg xmlns="http://www.w3.org/2000/svg" version="1.1" xmlns:xlink="http://www.w3.org/1999/xlink" xmlns:svgjs="http://svgjs.dev/svgjs" width="100%" height="100%" viewBox="0 0 1000 600"><rect width="1000" height="600" x="0" y="0" fill="#fafafa"/><g><circle r="166.66666666666666" cx="417.7809092203777" cy="440.00314236094437" fill="#60b5ff" transform="matrix(0.49778141319527464,0,0,0.49778141319527464,0,80.97461405291344)"/><path d="M419.6120027932232 515.0031534342138L392.5957937273591 515.0031534342138L316.9504083429396 436.7762191835006L391.09489322369996 365.0031570985216L417.45070606795406 365.0031570985216L337.4827272329963 441.93931691608793L337.4827272329963 430.7125811487178L419.6120027932232 515.0031534342138ZM320.1923534308433 515.0031534342138L299.87016061129884 515.0031534342138L299.87016061129884 365.0031570985216L320.1923534308433 365.0031570985216L320.1923534308433 515.0031534342138ZM460.25638843231206 515.0031534342138L439.9341956127676 515.0031534342138L439.9341956127676 365.0031570985216L460.25638843231206 365.0031570985216L460.25638843231206 515.0031534342138ZM531.9994325072178 449.0836033135053L453.77249825650466 449.0836033135053L453.77249825650466 430.50245507820546L531.9994325072178 430.50245507820546L531.9994325072178 449.0836033135053ZM535.6916477462191 383.5843053338215L453.77249825650466 383.5843053338215L453.77249825650466 365.0031570985216L535.6916477462191 365.0031570985216L535.6916477462191 383.5843053338215Z " fill="#fafafa" transform="matrix(0.49778141319527464,0,0,0.49778141319527464,0,80.97461405291344)"/><path d="M780.997542163939 512.9596276135171L755.4535526825415 512.9596276135171L683.9303821346283 438.9955869596037L754.0344421557971 371.13372157069085L778.9540230054272 371.13372157069085L703.3438141404904 443.8773271716041L703.3438141404904 433.26238043155666L780.997542163939 512.9596276135171ZM686.995660872396 512.9596276135171L667.780904340278 512.9596276135171L667.780904340278 371.13372157069085L686.995660872396 371.13372157069085L686.995660872396 512.9596276135171ZM831.4894947055016 515.0031467720289L831.4894947055016 515.0031467720289Q818.2066201751747 515.0031467720289 807.3646157508482 508.3617095068655Q796.5226113265218 501.72027224170216 790.3069072193816 490.282241396143Q784.0628209017067 478.8442105505839 784.0628209017067 464.53957644100126L784.0628209017067 464.53957644100126Q784.0628209017067 450.2349423314186 790.3069072193816 438.7685292753246Q796.5226113265218 427.33049842976544 807.2510869087088 420.60391453299746Q817.9795624908957 413.8489484256945 831.4894947055016 413.8489484256945L831.4894947055016 413.8489484256945Q842.5017923930374 413.8489484256945 851.1867488167125 418.4468665323461Q859.8717052403878 423.04478463899767 865.2075608209462 431.1053324309053Q870.51503419097 439.1942624333479 871.1110606122027 449.80920917339535L871.1110606122027 449.80920917339535L871.1110606122027 479.0428860243281Q870.51503419097 489.4591572906313 865.2927074525509 497.63323392467856Q860.0987629246667 505.80731055872576 851.4138065009917 510.4052286653773Q842.7288500773165 515.0031467720289 831.4894947055016 515.0031467720289ZM834.5547734432693 497.63323392467856L834.5547734432693 497.63323392467856Q848.2349989210844 497.63323392467856 856.6077510288758 488.32386886923587Q864.9805031366672 479.0428860243281 864.9805031366672 464.53957644100126L864.9805031366672 464.53957644100126Q864.9805031366672 454.52065612218644 861.2056691355273 447.05613475151137Q857.4308351343875 439.5916133808363 850.4771935533403 435.419428432208Q843.5235519722931 431.21886127304487 834.3277157589902 431.21886127304487L834.3277157589902 431.21886127304487Q825.131879545687 431.21886127304487 818.0930913330352 435.5045750638127Q811.0543031203835 439.7902888545805 807.0524114349645 447.25481022525554Q803.0789019600804 454.7193315959306 803.0789019600804 464.31251875672217L803.0789019600804 464.31251875672217Q803.0789019600804 474.13276360179276 807.0524114349645 481.59728497246783Q811.0543031203835 489.0618063431429 818.2066201751747 493.34752013391073Q825.358937229966 497.63323392467856 834.5547734432693 497.63323392467856ZM882.3504159840176 512.9596276135171L863.7600680836671 512.9596276135171L863.7600680836671 486.791229500352L867.251079979458 463.09208370372204L863.7600680836671 439.5916133808363L863.7600680836671 415.8924675842063L882.3504159840176 415.8924675842063L882.3504159840176 512.9596276135171ZM927.5348951555563 512.9596276135171L909.14322272895 512.9596276135171L909.14322272895 415.8924675842063L927.5348951555563 415.8924675842063L927.5348951555563 512.9596276135171ZM927.5348951555563 457.58593485995414L927.5348951555563 457.58593485995414L920.5812535745092 454.52065612218644Q920.5812535745092 435.930308221836 929.1526811560449 424.88962832376524Q937.7524909481155 413.8489484256945 953.8735865319308 413.8489484256945L953.8735865319308 413.8489484256945Q961.252961271001 413.8489484256945 967.1564610622574 416.40334737383426Q973.0883430640487 418.95774632197407 978.197140960328 424.88962832376524L978.197140960328 424.88962832376524L966.1347014830015 437.34941874858026Q963.0694227452339 434.0854645370684 959.4081175862335 432.63797179978917Q955.7184302166983 431.21886127304487 950.808307794163 431.21886127304487L950.808307794163 431.21886127304487Q940.590712001604 431.21886127304487 934.0628035785802 437.7467696960687Q927.5348951555563 444.3030603296274 927.5348951555563 457.58593485995414ZM1017.2226804457968 512.9596276135171L998.0363061242136 512.9596276135171L998.0363061242136 371.13372157069085L1017.2226804457968 371.13372157069085L1017.2226804457968 512.9596276135171ZM1085.0845458347094 450.632293278907L1011.0921229702612 450.632293278907L1011.0921229702612 433.0637049578125L1085.0845458347094 433.0637049578125L1085.0845458347094 450.632293278907ZM1088.5471755199655 388.7023098917854L1011.0921229702612 388.7023098917854L1011.0921229702612 371.13372157069085L1088.5471755199655 371.13372157069085L1088.5471755199655 388.7023098917854ZM1147.809231116808 515.0031467720289L1147.809231116808 515.0031467720289Q1134.5263565864811 515.0031467720289 1123.7127343726897 508.3617095068655Q1112.870729948363 501.72027224170216 1106.6266436306882 490.282241396143Q1100.4109395235482 478.8442105505839 1100.4109395235482 464.53957644100126L1100.4109395235482 464.53957644100126Q1100.4109395235482 450.2349423314186 1106.6266436306882 438.7685292753246Q1112.870729948363 427.33049842976544 1123.59920553055 420.60391453299746Q1134.327681112737 413.8489484256945 1147.809231116808 413.8489484256945L1147.809231116808 413.8489484256945Q1158.8499110148787 413.8489484256945 1167.5348674385536 418.4468665323461Q1176.219823862229 423.04478463899767 1181.5272972322527 431.1053324309053Q1186.8347706022764 439.1942624333479 1187.4591792340439 449.80920917339535L1187.4591792340439 449.80920917339535L1187.4591792340439 479.0428860243281Q1186.8347706022764 489.4591572906313 1181.6408260743924 497.63323392467856Q1176.4184993359731 505.80731055872576 1167.7335429122982 510.4052286653773Q1159.0485864886227 515.0031467720289 1147.809231116808 515.0031467720289ZM1150.8745098545755 497.63323392467856L1150.8745098545755 497.63323392467856Q1164.5831175429257 497.63323392467856 1172.955869650717 488.32386886923587Q1181.3286217585082 479.0428860243281 1181.3286217585082 464.53957644100126L1181.3286217585082 464.53957644100126Q1181.3286217585082 454.52065612218644 1177.5537877573684 447.05613475151137Q1173.778953756229 439.5916133808363 1166.8253121751818 435.419428432208Q1159.8716705941347 431.21886127304487 1150.6758343808315 431.21886127304487L1150.6758343808315 431.21886127304487Q1141.4799981675283 431.21886127304487 1134.4412099548767 435.5045750638127Q1127.37403953169 439.7902888545805 1123.400530056806 447.25481022525554Q1119.3986383713868 454.7193315959306 1119.3986383713868 464.31251875672217L1119.3986383713868 464.31251875672217Q1119.3986383713868 474.13276360179276 1123.400530056806 481.59728497246783Q1127.37403953169 489.0618063431429 1134.5263565864811 493.34752013391073Q1141.6786736412723 497.63323392467856 1150.8745098545755 497.63323392467856ZM1198.6985346058586 512.9596276135171L1180.1081867055086 512.9596276135171L1180.1081867055086 486.791229500352L1183.5708163907643 463.09208370372204L1180.1081867055086 439.5916133808363L1180.1081867055086 415.8924675842063L1198.6985346058586 415.8924675842063L1198.6985346058586 512.9596276135171ZM1243.8546315668627 512.9596276135171L1225.4629591402563 512.9596276135171L1225.4629591402563 415.8924675842063L1243.8546315668627 415.8924675842063L1243.8546315668627 512.9596276135171ZM1309.4459201129848 512.9596276135171L1291.0542476863784 512.9596276135171L1291.0542476863784 454.3219806484422Q1291.0542476863784 443.4799762241157 1284.412810421215 437.2358899064407Q1277.771373156052 431.0201857993007 1267.7808350477717 431.0201857993007L1267.7808350477717 431.0201857993007Q1261.0258689404686 431.0201857993007 1255.7183955704454 433.88678906332416Q1250.4109222004213 436.7250101168128 1247.1185857783748 441.8338080130923Q1243.8546315668627 446.9426059093718 1243.8546315668627 454.0949229641631L1243.8546315668627 454.0949229641631L1236.304963564583 450.4336178051628Q1236.304963564583 439.39293790709206 1241.1015571449789 431.21886127304487Q1245.8981507253748 423.04478463899767 1254.270902833166 418.4468665323461Q1262.672037151492 413.8489484256945 1273.0883084177954 413.8489484256945L1273.0883084177954 413.8489484256945Q1283.3059042103546 413.8489484256945 1291.5651274760066 418.3333376902065Q1299.852732952193 422.84610916525344 1304.649326532589 431.0201857993007Q1309.4459201129848 439.1942624333479 1309.4459201129848 450.4336178051628L1309.4459201129848 450.4336178051628L1309.4459201129848 512.9596276135171ZM1375.2642663433858 512.9596276135171L1356.6739184430353 512.9596276135171L1356.6739184430353 454.3219806484422Q1356.6739184430353 443.4799762241157 1350.032481177872 437.2358899064407Q1343.3910439127085 431.0201857993007 1333.5707990676378 431.0201857993007L1333.5707990676378 431.0201857993007Q1326.8158329603352 431.0201857993007 1321.4232129587067 433.88678906332416Q1316.0022107465434 436.7250101168128 1312.7382565350317 441.8338080130923Q1309.4459201129848 446.9426059093718 1309.4459201129848 454.0949229641631L1309.4459201129848 454.0949229641631L1299.0296488466815 450.4336178051628Q1299.654057478449 439.1942624333479 1305.0750596906123 431.1053324309053Q1310.4676796922408 423.04478463899767 1319.0674894843114 418.4468665323461Q1327.6389170658467 413.8489484256945 1337.856512858406 413.8489484256945L1337.856512858406 413.8489484256945Q1348.499841808988 413.8489484256945 1356.8725939167794 418.3333376902065Q1365.245346024571 422.84610916525344 1370.240615078711 431.0201857993007Q1375.2642663433858 439.1942624333479 1375.2642663433858 450.632293278907L1375.2642663433858 450.632293278907L1375.2642663433858 512.9596276135171ZM1442.8990740480194 515.0031467720289L1442.8990740480194 515.0031467720289Q1426.153569832437 515.0031467720289 1414.2898058288542 508.87258929649346Q1402.426041825272 502.74203182095806 1393.2302056119688 491.1053255016547L1393.2302056119688 491.1053255016547L1406.3144046685516 478.0211264450722Q1413.0693707758542 487.4156381321195 1421.839473831134 492.2122317125153Q1430.6379590969486 497.008825292911 1443.5234826797873 497.008825292911L1443.5234826797873 497.008825292911Q1456.1819485783462 497.008825292911 1463.8451454227657 491.5026764491431Q1471.508342267185 485.9965276053752 1471.508342267185 476.3749582340488L1471.508342267185 476.3749582340488Q1471.508342267185 468.39955707374577 1467.8186548976496 463.51781686174536Q1464.1573497386494 458.60769443921004 1457.9132634209745 455.4288868593028Q1451.6975593138345 452.2784614899304 1444.318184574764 449.72406254179066Q1436.9671920462283 447.1696635936509 1429.616199517693 444.18953148748784Q1422.2652069891574 441.2377815918597 1416.1346495136218 436.83853895895237Q1410.0040920380866 432.439296326045 1406.2292580369467 425.28697927125364Q1402.426041825272 418.13466221646235 1402.426041825272 407.3210400026707L1402.426041825272 407.3210400026707Q1402.426041825272 395.2586005253441 1408.2727771954587 386.7723195754131Q1414.0911303551102 378.28603862548215 1424.1951973055297 373.6881205188306Q1434.327646466484 369.09020241217905 1446.986112365043 369.09020241217905L1446.986112365043 369.09020241217905Q1460.8933955271373 369.09020241217905 1471.9056932146732 374.51120462434227Q1482.946373112744 379.93220683650554 1489.900014693791 388.7023098917854L1489.900014693791 388.7023098917854L1476.8158156372087 401.7865089483679Q1470.486582687929 394.43551641983237 1463.2207367909982 390.7458290502972Q1455.9832731046022 387.0845238912969 1446.588761417555 387.0845238912969L1446.588761417555 387.0845238912969Q1435.1223483614608 387.0845238912969 1428.395764464693 392.07979294543685Q1421.64079835739 397.1034442101117 1421.64079835739 406.0722227391357L1421.64079835739 406.0722227391357Q1421.64079835739 413.224539793927 1425.4156323585298 417.6237824268344Q1429.2188485702045 422.02302505974177 1435.3494060457397 425.08830379750947Q1441.4799635212753 428.15358253527717 1448.9161026814154 430.7079814834169Q1456.3806240520908 433.26238043155666 1463.731616580626 436.32765916932436Q1471.1109913196965 439.39293790709206 1477.2415487952321 444.1043848558832Q1483.3721062707673 448.78744959413945 1487.1469402719072 456.25197096481446Q1490.921774273047 463.71649233548953 1490.921774273047 474.9558477073045L1490.921774273047 474.9558477073045Q1490.921774273047 493.74487108139914 1477.951104058604 504.3882000319814Q1464.9804338441609 515.0031467720289 1442.8990740480194 515.0031467720289ZM1556.5130628191687 515.0031467720289L1556.5130628191687 515.0031467720289Q1542.2084287095863 515.0031467720289 1530.770397864027 508.248180664726Q1519.3323670184682 501.52159676795793 1512.5774009111651 489.97003708025926Q1505.8508170143973 478.4184773925606 1505.8508170143973 464.11384328297794L1505.8508170143973 464.11384328297794Q1505.8508170143973 450.0078846471395 1512.5774009111651 438.68338264371994Q1519.3323670184682 427.33049842976544 1530.770397864027 420.60391453299746Q1542.2084287095863 413.8489484256945 1556.5130628191687 413.8489484256945L1556.5130628191687 413.8489484256945Q1570.6190214550074 413.8489484256945 1582.170581142706 420.4903856908579Q1593.722140830405 427.13182295602127 1600.4487247271727 438.5698538015804Q1607.2036908344758 450.0078846471395 1607.2036908344758 464.11384328297794L1607.2036908344758 464.11384328297794Q1607.2036908344758 478.4184773925606 1600.4487247271727 489.97003708025926Q1593.722140830405 501.52159676795793 1582.170581142706 508.248180664726Q1570.6190214550074 515.0031467720289 1556.5130628191687 515.0031467720289ZM1556.5130628191687 497.2358829771901L1556.5130628191687 497.2358829771901Q1565.708899032472 497.2358829771901 1572.8612160872635 492.9217869758874Q1580.0135331420547 488.63607318511964 1584.1005714590783 481.17155181444457Q1588.187609776102 473.73541265430435 1588.187609776102 464.11384328297794L1588.187609776102 464.11384328297794Q1588.187609776102 454.7193315959306 1584.015424827474 447.3683390673951Q1579.8148576683107 440.0173465388596 1572.7760694556587 435.81677937969647Q1565.708899032472 431.61621222053327 1556.5130628191687 431.61621222053327L1556.5130628191687 431.61621222053327Q1547.317226605866 431.61621222053327 1540.1649095510743 435.81677937969647Q1533.012592496283 440.0173465388596 1528.9255541792595 447.3683390673951Q1524.838515862236 454.7193315959306 1524.838515862236 464.11384328297794L1524.838515862236 464.11384328297794Q1524.838515862236 473.73541265430435 1528.9255541792595 481.17155181444457Q1533.012592496283 488.63607318511964 1540.1649095510743 492.9217869758874Q1547.317226605866 497.2358829771901 1556.5130628191687 497.2358829771901ZM1657.0712347442704 512.9596276135171L1638.6795623176645 512.9596276135171L1638.6795623176645 401.3891580008795Q1638.6795623176645 390.54715357655294 1643.3626270559207 382.4866057846453Q1648.0740740047117 374.3976757822027 1656.3332972703638 369.71461104394655Q1664.6209027465507 365.0031640951554 1675.661582644621 365.0031640951554L1675.661582644621 365.0031640951554Q1684.0343347524126 365.0031640951554 1690.1648922279478 367.8697673591789Q1696.2954497034834 370.73637062320245 1701.404247599763 376.24251946697035L1701.404247599763 376.24251946697035L1689.3418081224363 388.1062834705528Q1686.7022625426916 385.2396802065293 1683.4099261206452 383.7070408376454Q1680.145971909133 382.1744014687616 1675.4629071708769 382.1744014687616L1675.4629071708769 382.1744014687616Q1666.6644219050622 382.1744014687616 1661.8678283246663 387.28319936504107Q1657.0712347442704 392.39199726132057 1657.0712347442704 401.3891580008795L1657.0712347442704 401.3891580008795L1657.0712347442704 512.9596276135171ZM1687.9226975956922 432.63797179978917L1614.7533588367555 432.63797179978917L1614.7533588367555 415.8924675842063L1687.9226975956922 415.8924675842063L1687.9226975956922 432.63797179978917ZM1733.9018786622078 512.9596276135171L1715.5102062356013 512.9596276135171L1715.5102062356013 375.22075988771445L1733.9018786622078 375.22075988771445L1733.9018786622078 512.9596276135171ZM1757.799699932582 432.63797179978917L1691.5840027546924 432.63797179978917L1691.5840027546924 415.8924675842063L1757.799699932582 415.8924675842063L1757.799699932582 432.63797179978917Z " fill="#111111" transform="matrix(0.49778141319527464,0,0,0.49778141319527464,0,80.97461405291344)"/></g></svg>